<svg id="svg" version="1.1" xmlns="http://www.w3.org/2000/svg" xmlns:xlink="http://www.w3.org/1999/xlink" width="400" height="400" viewBox="0, 0, 400,400"><g id="svgg"><path id="path0" d="M50.000 13.595 C 17.179 22.214,6.072 63.810,30.159 87.897 C 58.189 115.927,105.556 96.264,105.556 56.597 C 105.556 27.336,78.225 6.182,50.000 13.595 M279.167 127.083 C 279.167 127.469,277.315 127.778,275.000 127.778 C 272.685 127.778,270.833 128.086,270.833 128.472 C 270.833 128.854,269.583 129.167,268.056 129.167 C 266.528 129.167,265.278 129.479,265.278 129.861 C 265.278 130.243,264.028 130.556,262.500 130.556 C 260.972 130.556,259.722 130.868,259.722 131.250 C 259.722 131.632,259.097 131.944,258.333 131.944 C 257.569 131.944,256.944 132.257,256.944 132.639 C 256.944 133.021,256.007 133.333,254.861 133.333 C 253.715 133.333,252.778 133.646,252.778 134.028 C 252.778 134.410,252.153 134.722,251.389 134.722 C 250.625 134.722,250.000 135.035,250.000 135.417 C 250.000 135.799,249.375 136.111,248.611 136.111 C 247.847 136.111,247.222 136.424,247.222 136.806 C 247.222 137.188,246.666 137.500,245.987 137.500 C 245.307 137.500,244.301 138.125,243.750 138.889 C 243.199 139.653,242.262 140.278,241.667 140.278 C 241.071 140.278,240.134 140.903,239.583 141.667 C 239.033 142.431,238.178 143.056,237.684 143.056 C 236.512 143.056,225.000 154.568,225.000 155.740 C 225.000 156.234,224.375 157.088,223.611 157.639 C 222.847 158.189,222.222 159.062,222.222 159.578 C 222.222 160.510,220.601 162.500,219.841 162.500 C 219.623 162.500,219.444 155.938,219.444 147.917 L 219.444 133.333 182.639 133.333 L 145.833 133.333 145.833 254.861 L 145.833 376.389 184.028 376.389 L 222.222 376.389 222.222 309.722 C 222.222 265.741,222.459 243.056,222.917 243.056 C 223.313 243.056,223.611 240.972,223.611 238.194 C 223.611 235.417,223.909 233.333,224.306 233.333 C 224.688 233.333,225.000 232.083,225.000 230.556 C 225.000 229.028,225.312 227.778,225.694 227.778 C 226.076 227.778,226.389 226.528,226.389 225.000 C 226.389 223.472,226.701 222.222,227.083 222.222 C 227.465 222.222,227.778 221.597,227.778 220.833 C 227.778 220.069,228.090 219.444,228.472 219.444 C 228.854 219.444,229.167 218.819,229.167 218.056 C 229.167 217.292,229.479 216.667,229.861 216.667 C 230.243 216.667,230.556 216.042,230.556 215.278 C 230.556 214.514,230.868 213.889,231.250 213.889 C 231.632 213.889,231.944 213.416,231.944 212.837 C 231.944 211.466,243.411 200.000,244.782 200.000 C 245.360 200.000,245.833 199.688,245.833 199.306 C 245.833 198.924,246.458 198.611,247.222 198.611 C 247.986 198.611,248.611 198.299,248.611 197.917 C 248.611 197.535,249.549 197.222,250.694 197.222 C 251.840 197.222,252.778 196.910,252.778 196.528 C 252.778 196.146,253.715 195.833,254.861 195.833 C 256.007 195.833,256.944 195.521,256.944 195.139 C 256.944 194.712,260.417 194.444,265.972 194.444 C 271.528 194.444,275.000 194.712,275.000 195.139 C 275.000 195.521,276.250 195.833,277.778 195.833 C 279.306 195.833,280.556 196.146,280.556 196.528 C 280.556 196.910,281.181 197.222,281.944 197.222 C 282.708 197.222,283.333 197.535,283.333 197.917 C 283.333 198.299,283.807 198.611,284.385 198.611 C 285.756 198.611,297.222 210.078,297.222 211.448 C 297.222 212.027,297.535 212.500,297.917 212.500 C 298.299 212.500,298.611 213.125,298.611 213.889 C 298.611 214.653,298.924 215.278,299.306 215.278 C 299.688 215.278,300.000 215.903,300.000 216.667 C 300.000 217.431,300.313 218.056,300.694 218.056 C 301.076 218.056,301.389 218.993,301.389 220.139 C 301.389 221.285,301.701 222.222,302.083 222.222 C 302.465 222.222,302.778 223.472,302.778 225.000 C 302.778 226.528,303.090 227.778,303.472 227.778 C 303.854 227.778,304.167 229.340,304.167 231.250 C 304.167 233.160,304.479 234.722,304.861 234.722 C 305.320 234.722,305.556 258.796,305.556 305.556 L 305.556 376.389 343.750 376.389 L 381.944 376.389 381.944 295.139 C 381.944 241.435,381.709 213.889,381.250 213.889 C 380.838 213.889,380.556 211.343,380.556 207.639 C 380.556 203.935,380.273 201.389,379.861 201.389 C 379.479 201.389,379.167 199.826,379.167 197.917 C 379.167 196.007,378.854 194.444,378.472 194.444 C 378.086 194.444,377.778 192.593,377.778 190.278 C 377.778 187.963,377.469 186.111,377.083 186.111 C 376.701 186.111,376.389 185.174,376.389 184.028 C 376.389 182.882,376.076 181.944,375.694 181.944 C 375.313 181.944,375.000 181.007,375.000 179.861 C 375.000 178.715,374.687 177.778,374.306 177.778 C 373.924 177.778,373.611 176.840,373.611 175.694 C 373.611 174.549,373.299 173.611,372.917 173.611 C 372.535 173.611,372.222 172.674,372.222 171.528 C 372.222 170.382,371.910 169.444,371.528 169.444 C 371.146 169.444,370.833 168.819,370.833 168.056 C 370.833 167.292,370.521 166.667,370.139 166.667 C 369.757 166.667,369.444 166.042,369.444 165.278 C 369.444 164.514,369.132 163.889,368.750 163.889 C 368.368 163.889,368.056 163.333,368.056 162.653 C 368.056 161.974,367.431 160.967,366.667 160.417 C 365.903 159.866,365.278 158.929,365.278 158.333 C 365.278 157.738,364.653 156.801,363.889 156.250 C 363.125 155.699,362.500 154.845,362.500 154.351 C 362.500 153.179,350.988 141.667,349.816 141.667 C 349.322 141.667,348.467 141.042,347.917 140.278 C 347.366 139.514,346.360 138.889,345.680 138.889 C 345.000 138.889,344.444 138.576,344.444 138.194 C 344.444 137.813,343.819 137.500,343.056 137.500 C 342.292 137.500,341.667 137.188,341.667 136.806 C 341.667 136.424,341.042 136.111,340.278 136.111 C 339.514 136.111,338.889 135.799,338.889 135.417 C 338.889 135.035,338.264 134.722,337.500 134.722 C 336.736 134.722,336.111 134.410,336.111 134.028 C 336.111 133.646,335.174 133.333,334.028 133.333 C 332.882 133.333,331.944 133.021,331.944 132.639 C 331.944 132.257,331.007 131.944,329.861 131.944 C 328.715 131.944,327.778 131.632,327.778 131.250 C 327.778 130.868,326.840 130.556,325.694 130.556 C 324.549 130.556,323.611 130.243,323.611 129.861 C 323.611 129.475,321.759 129.167,319.444 129.167 C 317.130 129.167,315.278 128.858,315.278 128.472 C 315.278 128.075,313.194 127.778,310.417 127.778 C 307.639 127.778,305.556 127.480,305.556 127.083 C 305.556 126.645,300.694 126.389,292.361 126.389 C 284.028 126.389,279.167 126.645,279.167 127.083 M23.611 254.861 L 23.611 376.389 61.806 376.389 L 100.000 376.389 100.000 254.861 L 100.000 133.333 61.806 133.333 L 23.611 133.333 23.611 254.861 " stroke="none" fill="#ffffff" fill-rule="evenodd"></path></g></svg>