<svg id="svg" xmlns="http://www.w3.org/2000/svg" xmlns:xlink="http://www.w3.org/1999/xlink" width="400" height="596.4912280701755" viewBox="0, 0, 400,596.4912280701755"><g id="svgg"><path id="path0" d="M70.961 10.285 C 10.782 39.204,-8.993 89.659,3.391 182.681 C 12.640 252.153,53.909 356.920,98.423 423.939 C 103.472 431.539,107.602 438.309,107.602 438.982 C 107.602 439.655,112.339 446.435,118.129 454.047 C 123.918 461.660,128.655 468.437,128.655 469.108 C 128.655 477.195,200.918 549.517,224.561 565.092 C 284.039 604.274,317.729 607.080,379.532 578.003 C 402.836 567.040,405.283 561.564,395.017 543.346 C 392.276 538.482,385.314 525.556,379.545 514.620 C 373.776 503.684,366.160 489.474,362.620 483.041 C 359.080 476.608,351.140 461.871,344.975 450.292 C 313.813 391.764,318.559 395.182,288.462 409.590 C 252.366 426.870,236.448 423.884,209.357 394.754 C 167.142 349.362,135.831 282.028,134.024 232.749 C 132.765 198.407,134.166 196.175,166.773 180.562 C 194.279 167.392,196.580 164.195,190.648 147.382 C 187.471 138.379,149.505 63.383,132.615 32.749 C 128.713 25.673,123.322 15.673,120.633 10.526 C 113.233 -3.636,100.063 -3.700,70.961 10.285 " stroke="none" fill="#000000" fill-rule="evenodd"></path></g></svg>