<?xml version="1.0" encoding="UTF-8" standalone="no"?>
<!DOCTYPE svg PUBLIC "-//W3C//DTD SVG 1.1//EN" "http://www.w3.org/Graphics/SVG/1.1/DTD/svg11.dtd">
<svg version="1.1" xmlns="http://www.w3.org/2000/svg" xmlns:xlink="http://www.w3.org/1999/xlink" preserveAspectRatio="xMidYMid meet" viewBox="0 0 640 640" width="640" height="640"><defs><path d="M71.07 10.28C10.94 39.17 -8.82 89.59 3.55 182.53C12.79 251.95 54.03 356.63 98.51 423.59C103.55 431.18 107.68 437.95 107.68 438.62C107.68 439.29 112.41 446.07 118.2 453.67C123.98 461.28 128.71 468.05 128.71 468.72C128.71 476.8 200.92 549.06 224.54 564.63C283.97 603.78 317.63 606.58 379.38 577.53C402.67 566.57 405.11 561.1 394.86 542.9C392.12 538.04 385.16 525.12 379.4 514.2C373.63 503.27 366.02 489.07 362.49 482.64C358.95 476.22 351.02 461.49 344.86 449.92C313.72 391.44 318.46 394.86 288.39 409.25C252.32 426.52 236.42 423.53 209.35 394.43C167.17 349.07 135.88 281.8 134.08 232.56C132.82 198.24 134.22 196.01 166.8 180.41C194.28 167.25 196.58 164.06 190.66 147.26C187.48 138.27 149.55 63.33 132.67 32.72C128.77 25.65 123.39 15.66 120.7 10.52C113.3 -3.63 100.15 -3.7 71.07 10.28" id="anfQ0NGNF"></path></defs><g><g><g><use xlink:href="#anfQ0NGNF" opacity="1" fill="#ffffff" fill-opacity="1"></use><g><use xlink:href="#anfQ0NGNF" opacity="1" fill-opacity="0" stroke="#000000" stroke-width="1" stroke-opacity="0"></use></g></g></g></g></svg>