<?xml version="1.0" standalone="no"?>
<!DOCTYPE svg PUBLIC "-//W3C//DTD SVG 20010904//EN"
 "http://www.w3.org/TR/2001/REC-SVG-20010904/DTD/svg10.dtd">
<svg version="1.0" xmlns="http://www.w3.org/2000/svg"
 width="700.000000pt" height="590.000000pt" viewBox="0 0 700.000000 590.000000"
 preserveAspectRatio="xMidYMid meet">

<g transform="translate(0.000000,590.000000) scale(0.100000,-0.100000)"
fill="#000000" stroke="none">
<path d="M2444 5645 c-45 -7 -91 -18 -102 -24 -11 -6 -31 -11 -44 -11 -36 0
-168 -33 -168 -42 0 -4 -5 -8 -11 -8 -27 0 -173 -73 -259 -130 -113 -75 -126
-87 -434 -393 l-239 -238 -1 -122 c-1 -113 -3 -126 -28 -174 -36 -68 -98 -126
-176 -164 -54 -26 -74 -31 -143 -31 -48 0 -86 5 -95 12 -11 10 -18 9 -31 -1
-52 -43 -413 -412 -413 -423 0 -17 716 -730 738 -734 11 -2 90 70 225 206 206
207 207 209 200 243 -5 19 -8 66 -8 105 0 60 5 79 32 132 43 81 122 155 195
183 45 17 73 20 135 17 146 -7 132 4 689 -550 273 -272 505 -495 516 -496 28
-5 468 432 467 463 0 12 -56 74 -144 160 -79 77 -401 396 -716 710 l-572 569
59 53 c50 45 128 101 209 151 59 36 158 82 220 103 39 12 72 26 75 29 16 21
189 43 375 47 l200 5 68 70 c38 38 66 75 64 81 -4 15 -205 117 -229 117 -9 0
-18 4 -20 8 -1 4 -37 18 -78 30 -189 54 -400 72 -556 47z"/>
<path d="M5475 5651 c-11 -5 -45 -12 -75 -15 -133 -17 -316 -99 -448 -201 -24
-18 -162 -156 -162 -161 0 -3 -20 -33 -44 -68 -24 -35 -56 -90 -71 -122 -15
-32 -31 -68 -36 -79 -12 -25 -37 -115 -50 -180 -12 -56 -7 -390 6 -418 7 -16
-263 -290 -1614 -1641 -892 -892 -1633 -1640 -1646 -1662 -56 -93 -70 -151
-70 -279 0 -140 16 -202 74 -292 50 -78 127 -145 215 -188 l72 -35 161 0 162
0 81 43 c80 41 117 77 1700 1660 l1618 1618 64 -8 c113 -14 336 -9 428 11 47
9 87 21 90 25 3 4 19 11 35 15 36 9 139 58 143 69 2 4 8 7 14 7 36 0 253 188
298 259 8 13 23 33 32 45 25 33 109 202 119 239 4 18 15 59 24 92 38 139 26
495 -17 503 -9 2 -110 -92 -244 -226 -289 -288 -335 -316 -519 -317 -144 0
-241 38 -345 138 -60 57 -94 104 -111 150 -7 20 -16 37 -20 37 -16 0 -32 136
-25 216 6 81 48 214 68 214 4 0 8 6 8 14 0 8 106 121 236 250 153 153 234 241
231 250 -4 9 -26 17 -54 21 -26 3 -62 10 -79 15 -36 12 -221 12 -249 1z
m-3622 -4635 c48 -20 114 -90 126 -133 25 -88 3 -158 -65 -213 -65 -52 -129
-63 -198 -35 -129 54 -172 196 -92 304 58 79 151 110 229 77z"/>
<path d="M4213 2277 c-200 -199 -363 -368 -363 -376 0 -16 1466 -1483 1516
-1517 19 -14 63 -36 96 -50 59 -25 68 -26 217 -22 l156 4 72 39 c185 99 294
296 280 505 -4 68 -39 197 -55 210 -4 3 -14 19 -22 35 -15 33 -1508 1535
-1525 1535 -5 0 -173 -163 -372 -363z"/>
</g>
</svg>
